<svg width="512" height="512" viewBox="0 0 512 512" fill="none" xmlns="http://www.w3.org/2000/svg">
<g clip-path="url(#clip0_37_5)">
<path d="M79.5955 339.864C79.3473 343.012 78.9969 346.153 78.8881 349.308C78.8189 351.314 79.1086 353.34 79.2471 355.51C67.6197 355.51 55.958 355.51 44.0686 355.512C41.2235 355.522 38.6059 355.528 35.9884 355.535C35.6276 355.511 35.2668 355.487 34.7924 355.456C34.7924 291.824 34.7924 228.219 34.7923 164.359C34.808 163.814 34.8238 163.525 34.824 163.523C36.4382 163.697 37.9928 164.037 39.5388 163.985C41.1583 163.93 42.7081 163.33 43.8831 161.64C44.1015 161.504 44.2489 161.383 44.4232 161.239C44.4503 161.217 44.4862 161.15 44.5443 161.101C44.6692 160.844 44.736 160.635 44.8795 160.384C46.9452 157.244 47.1366 153.711 46.093 150.214C44.6194 145.276 40.634 143.035 36.2613 144.603C35.5236 144.868 35.0406 144.744 34.7578 143.831C34.7578 135.754 34.7578 127.678 34.7578 119.402C42.5455 119.402 50.2271 119.402 58.1363 119.399C69.7434 119.391 81.1229 119.385 92.614 119.391C103.165 119.404 113.603 119.406 124.042 119.403C124.362 119.403 124.805 119.512 124.981 119.302C126.176 117.871 127.316 116.367 128.55 114.848C129.129 114.101 129.684 113.438 130.128 112.677C133.952 106.131 136.33 98.9807 136.008 90.725C135.787 87.5515 135.566 84.378 135.339 81.108C141.912 81.108 148.699 81.108 155.714 81.1054C176.653 81.1058 197.364 81.1107 218.075 81.1104C222.614 81.1104 227.153 81.0922 231.692 81.0824C239.509 81.0824 247.326 81.0824 255.443 81.0824C255.134 85.0362 254.839 88.8108 254.546 92.8439C254.465 93.7877 254.382 94.4731 254.299 95.1584C253.834 98.9744 253.394 102.795 252.895 106.604C252.517 109.485 252.063 112.349 251.642 115.221C250.986 118.297 250.334 121.375 249.672 124.449C249.532 125.098 249.355 125.735 249.188 126.61C248.898 127.984 248.651 129.142 248.327 130.264C246.672 135.982 244.998 141.691 243.33 147.403C242.7 148.978 242.026 150.527 241.447 152.13C238.698 159.746 235.098 166.729 231.038 173.341C229.128 176.452 226.999 179.37 224.851 182.239C222.13 185.873 219.396 189.512 216.471 192.887C213.227 196.631 209.767 200.089 206.389 203.654C199.937 210.463 193.002 216.46 185.868 222.091C181.095 225.858 176.174 229.335 171.311 232.926C170.462 233.553 169.574 234.1 168.59 234.796C163.048 238.196 157.704 241.729 152.166 244.704C146.434 247.784 140.72 250.856 135.3 254.713C134.199 252.405 133.118 250.205 132.074 247.98C128.818 241.038 125.448 234.172 122.363 227.115C119.461 220.475 116.813 213.661 114.147 206.867C110.73 198.156 107.316 189.44 104.085 180.622C102.606 176.585 101.441 172.348 100.376 168.108C99.6897 165.376 99.5794 162.575 100.599 159.715C101.608 156.883 102.187 153.876 101.767 150.615C101.377 147.588 100.62 145.039 98.0629 144.19C96.7632 143.759 95.3255 143.75 93.9652 143.855C88.4916 144.273 86.4465 150.93 87.2758 156.238C88.036 161.105 90.0524 165.286 92.2531 169.33C93.392 171.423 94.8291 173.317 95.7222 175.553C97.28 179.452 98.4757 183.57 99.9049 187.551C102.832 195.705 105.672 203.914 108.817 211.939C111.37 218.452 114.235 224.785 117.109 231.096C119.957 237.353 122.982 243.486 125.945 249.664C127.35 252.594 128.789 255.5 130.179 258.516C128.095 260.353 125.978 261.986 124.006 263.854C120.269 267.395 116.615 271.071 112.85 274.73C105.831 282.416 99.3724 290.621 93.843 300.031C93.7293 300.225 93.7148 300.389 93.6451 300.501C89.966 306.414 87.1642 312.965 84.555 319.656C84.4572 319.907 84.4851 320.233 84.3809 320.579C83.6906 322.526 82.9372 324.37 82.4845 326.322C81.4437 330.808 80.5493 335.347 79.5955 339.864ZM164.746 125.526C164.588 125.286 164.431 125.047 164.263 124.831C164.263 124.831 164.282 124.817 164.259 124.609C164.02 124.173 163.781 123.736 163.533 123.323C163.533 123.323 163.551 123.31 163.53 123.114C163.372 122.874 163.214 122.634 163.046 122.419C163.046 122.419 163.065 122.405 163.042 122.186C162.64 121.349 162.237 120.511 161.872 119.501C162.019 119.352 162.165 119.203 162.494 119.093C163.008 118.845 163.521 118.597 164.211 118.264C163.733 117.727 163.394 117.347 163.046 116.991C163.046 116.991 163.065 116.977 163.042 116.768C162.315 115.827 161.589 114.886 160.829 113.807C160.784 113.719 160.72 113.672 160.61 113.455C160.016 112.619 159.422 111.783 158.654 110.702C158.468 111.709 158.342 112.392 158.181 113.268C158.17 113.4 158.159 113.532 158.01 113.742C157.998 113.921 157.985 114.101 157.937 114.475C157.926 114.606 157.915 114.738 157.752 114.973C157.663 115.446 157.574 115.918 157.451 116.585C157.44 116.717 157.429 116.849 157.28 117.058C157.268 117.238 157.255 117.418 157.207 117.792C157.196 117.923 157.185 118.055 157.014 118.307C156.913 118.913 156.812 119.519 156.668 120.383C157.102 120.241 157.4 120.143 157.889 120.014C158.223 120.202 158.693 120.279 158.863 120.6C159.291 121.409 159.561 122.342 159.933 123.2C163.131 130.577 167.225 137.052 172.459 142.399C175.457 145.461 178.803 147.722 182.404 149.407C182.288 149.917 182.165 150.457 181.969 151.318C184.439 151.318 186.759 151.318 189.273 151.361C189.605 151.332 189.937 151.302 190.58 151.245C189.944 150.511 189.519 150.022 189.084 149.557C189.084 149.557 189.103 149.543 189.081 149.339C188.759 148.898 188.438 148.458 188.084 147.88C188.039 147.792 187.974 147.745 187.865 147.534C187.543 147.092 187.221 146.651 186.867 146.071C186.822 145.983 186.757 145.935 186.606 145.74C186.347 145.311 186.087 144.883 185.737 144.304C185.407 145.077 185.161 145.653 184.732 146.241C183.409 145.375 182.033 144.613 180.774 143.622C178.103 141.518 175.494 139.294 172.858 137.119C174.262 135.198 175.408 133.591 176.589 132.024C179.202 128.561 181.823 125.107 184.46 121.671C187.119 118.205 189.8 114.766 192.517 111.256C192.71 111.436 192.912 111.679 193.15 111.838C195.251 113.241 198.667 113.268 200.807 111.075C203.033 108.794 204.913 106.469 204.959 102.412C205.013 97.6249 200.822 92.6787 196.025 93.9022C191.934 94.9455 189.068 97.8282 188.572 103.401C188.465 104.611 188.257 105.807 187.946 107.093C187.666 107.575 187.386 108.057 186.994 108.58C186.923 108.635 186.885 108.715 186.729 108.902C186.368 109.485 186.007 110.067 185.534 110.69C185.463 110.746 185.425 110.826 185.269 111.013C184.908 111.595 184.547 112.178 184.074 112.801C184.003 112.857 183.965 112.937 183.809 113.123C183.529 113.605 183.249 114.087 182.857 114.61C182.786 114.666 182.748 114.746 182.592 114.933C182.231 115.515 181.87 116.098 181.397 116.721C181.326 116.777 181.288 116.857 181.132 117.043C180.852 117.525 180.572 118.007 180.181 118.53C180.11 118.586 180.071 118.666 179.915 118.853C179.554 119.435 179.193 120.018 178.721 120.641C178.65 120.697 178.611 120.776 178.456 120.963C178.175 121.445 177.895 121.927 177.504 122.45C177.433 122.506 177.395 122.586 177.239 122.772C176.877 123.355 176.516 123.937 176.044 124.561C175.973 124.617 175.934 124.696 175.779 124.883C175.417 125.466 175.056 126.048 174.584 126.672C174.513 126.727 174.474 126.807 174.319 126.994C174.038 127.476 173.758 127.958 173.367 128.481C173.296 128.536 173.258 128.616 173.102 128.803C172.741 129.386 172.379 129.968 171.907 130.591C171.836 130.647 171.798 130.727 171.642 130.914C171.362 131.396 171.081 131.878 170.662 132.429C170.321 132.607 169.98 132.785 169.574 132.779C169.103 132.23 168.633 131.681 168.129 130.995C168.084 130.907 168.02 130.859 167.91 130.648C167.589 130.206 167.267 129.765 166.912 129.185C166.868 129.097 166.803 129.05 166.694 128.843C166.455 128.502 166.215 128.162 165.966 127.846C165.966 127.846 165.985 127.832 165.963 127.632C165.724 127.294 165.485 126.955 165.236 126.64C165.236 126.64 165.255 126.626 165.233 126.431C165.075 126.191 164.917 125.951 164.749 125.736C164.749 125.736 164.768 125.722 164.746 125.526ZM69.7173 146.845C67.4255 144.18 64.7482 143.387 61.7286 144.37C58.0277 145.576 55.2845 150.17 55.9484 155.537C56.7003 161.617 60.8223 165.003 65.7212 163.943C69.0009 163.232 71.1896 160.524 71.8825 156.462C72.4744 152.991 72.0164 149.657 69.7173 146.845Z" fill="#2B6A9B"/>
<path d="M236.614 46.3469C243.385 49.9387 250.087 53.4337 256.761 57.011C262.887 60.2948 268.899 63.9341 275.114 66.93C282.175 70.3339 289.361 73.3709 296.575 76.251C305.15 79.6745 313.841 82.6287 322.698 84.7564C328.176 86.0724 333.641 87.5007 339.149 88.5899C343.057 89.3627 347.019 89.8706 350.973 90.1094C357.345 90.4944 363.73 90.7055 370.11 90.6949C372.973 90.6902 375.838 89.9968 378.698 89.5706C381.197 89.198 383.702 88.8477 386.184 88.3352C390.746 87.3931 395.307 86.4257 399.844 85.311C406.463 83.6845 412.956 81.4341 419.316 78.6485C425.66 75.8695 431.749 72.3492 437.778 68.6444C441.753 66.2018 446.018 64.438 449.87 61.7467C455.886 57.543 461.762 52.9992 467.512 48.2535C474.194 42.7382 480.674 36.8476 487.246 31.1282C487.604 30.8165 487.983 30.4672 488.393 30.3402C488.889 30.1868 489.429 30.252 489.951 30.2226C489.962 30.897 490.126 31.6428 489.947 32.2289C489.686 33.0903 489.282 33.9645 488.76 34.6124C486.089 37.93 483.411 41.2445 480.635 44.4266C478.457 46.924 476.189 49.3136 473.862 51.5963C470.319 55.0711 466.791 58.5911 463.077 61.7699C456.734 67.199 450.376 72.6305 443.785 77.5733C439.457 80.8194 434.777 83.3928 430.138 85.9442C419.209 91.956 407.779 96.3029 396.437 100.9C392.178 102.626 387.702 103.63 383.272 104.575C379.1 105.464 374.859 105.861 370.645 106.441C362.821 107.519 354.967 106.934 347.126 107.006C344.519 107.03 341.905 106.718 339.304 106.422C335.598 105.999 331.907 105.374 328.201 104.968C318.643 103.92 309.504 100.418 300.26 97.5961C293.415 95.5066 286.683 92.8406 279.921 90.3451C270.123 86.7291 260.507 82.4531 251.035 77.7021C246.626 75.491 242.352 72.8723 237.971 70.574C233.376 68.1638 228.774 65.754 224.088 63.6396C218.579 61.154 213.036 58.7267 207.4 56.7479C200.581 54.3539 193.67 52.3356 186.757 50.3842C181.786 48.9807 176.76 47.8436 171.73 46.7898C167.124 45.8248 162.485 45.0955 157.854 44.3273C153.337 43.5783 148.818 42.8496 144.289 42.2305C141.26 41.8163 138.216 41.4677 135.171 41.3411C129.997 41.1258 124.815 40.9408 119.642 41.067C116.165 41.1519 112.69 41.712 109.228 42.2121C105.738 42.7163 102.255 43.3308 98.788 44.0411C95.3277 44.75 91.8774 45.5578 88.4469 46.4626C79.8913 48.7192 71.4975 51.7238 63.3025 55.4943C57.1671 58.3172 51.1268 61.4604 45.0662 64.528C42.3289 65.9135 39.646 67.464 36.936 68.9328C36.6808 69.0711 36.4127 69.1814 36.1429 69.2682C35.0564 69.6181 34.5667 69.0227 34.8689 67.6813C35.4764 64.9855 36.9832 63.1147 38.7726 61.6309C46.475 55.2439 54.1286 48.7575 61.9637 42.6285C67.7936 38.068 74.1717 34.7738 80.5935 31.6846C89.3054 27.4936 98.212 24.0281 107.295 21.3263C111.203 20.1638 115.197 19.3344 119.189 18.7466C124.165 18.0141 129.176 17.6127 134.179 17.213C137.28 16.9652 140.401 16.7854 143.502 16.9359C147.588 17.1341 151.665 17.6589 155.743 18.0924C163.555 18.9229 171.229 20.7659 178.872 22.8746C188.721 25.5917 198.596 28.1949 208.079 32.568C215.709 36.0865 223.288 39.7738 230.882 43.4109C232.781 44.3205 234.65 45.3251 236.614 46.3469Z" fill="#6D91CA"/>
<path d="M135.338 254.809C140.72 250.857 146.434 247.784 152.166 244.704C157.704 241.729 163.048 238.196 168.565 234.899C171.585 235.587 174.524 236.246 177.449 236.992C181.273 237.967 185.095 238.961 188.902 240.033C196.404 242.148 203.916 244.263 211.142 247.592C219.069 251.244 226.975 254.979 234.818 258.897C243.372 263.17 251.862 267.641 260.343 272.13C265.159 274.679 269.869 277.534 274.688 280.074C278.946 282.318 283.232 284.52 287.606 286.378C294.545 289.326 301.511 292.226 308.573 294.674C315.741 297.159 323.023 299.155 330.285 301.202C334.129 302.286 338.026 303.105 341.919 303.889C344.68 304.444 347.48 304.689 350.253 305.16C357.912 306.461 365.616 306.519 373.316 306.305C376.509 306.216 379.696 305.617 382.876 305.152C385.85 304.717 388.825 304.246 391.776 303.625C396.058 302.724 400.366 301.912 404.577 300.631C410.92 298.703 417.255 296.658 423.471 294.19C429.835 291.663 435.839 287.98 441.831 284.304C445.986 281.754 450.352 279.724 454.461 277.074C458.353 274.565 462.131 271.735 465.783 268.718C472.859 262.871 479.815 256.799 486.814 250.808C488.556 249.317 490.239 247.71 492.024 246.304C492.581 245.866 493.388 245.914 494.08 245.74C494.01 246.741 494.249 248.074 493.819 248.688C491.741 251.656 489.505 254.457 487.28 257.262C486.265 258.542 485.183 259.751 484.066 260.895C480.579 264.467 477.16 268.16 473.532 271.5C467.665 276.901 461.774 282.29 455.662 287.247C450.653 291.309 445.457 295.121 440.07 298.337C434.33 301.763 428.321 304.541 422.331 307.27C415.216 310.511 408.045 313.596 400.802 316.363C396.439 318.031 391.927 319.205 387.421 320.162C383.092 321.082 378.695 321.719 374.309 321.976C366.966 322.407 359.609 322.51 352.256 322.599C349.529 322.632 346.798 322.239 343.876 322C342.946 319.241 341.571 317.174 339.569 315.737C336.621 313.62 333.31 313.347 330.049 313.038C327.51 312.797 324.941 312.899 322.391 313.022C320.772 313.101 319.157 313.453 317.551 313.765C315.443 314.175 313.345 314.665 311.142 315.112C308.494 314.305 305.929 313.581 303.402 312.693C295.429 309.891 287.444 307.132 279.515 304.147C275.128 302.496 270.819 300.508 266.519 298.525C261.697 296.3 256.888 294.02 252.142 291.559C246.65 288.713 241.284 285.49 235.773 282.705C226.387 277.961 216.824 273.809 207.015 270.612C201.739 268.892 196.412 267.4 191.082 265.955C186.607 264.743 182.101 263.704 177.596 262.673C174.967 262.072 172.316 261.628 169.672 261.13C167.108 260.647 164.543 260.171 161.975 259.719C159.404 259.266 156.835 258.794 154.256 258.428C151.629 258.054 148.995 257.759 146.359 257.501C142.998 257.171 139.633 256.913 136.194 256.582C135.858 255.964 135.598 255.386 135.338 254.809Z" fill="#6C90CA"/>
<path d="M243.42 147.425C244.998 141.691 246.672 135.982 248.327 130.264C248.651 129.142 248.898 127.984 249.195 126.726C252.198 128.275 255.18 129.958 258.176 131.601C261.208 133.263 264.3 134.77 267.286 136.55C275.337 141.348 283.702 145.138 292.233 148.327C301.006 151.606 309.82 154.754 318.698 157.562C324.443 159.379 330.315 160.629 336.168 161.856C340.303 162.723 344.507 163.076 348.671 163.747C355.624 164.868 362.615 164.824 369.588 164.556C373.771 164.395 377.948 163.57 382.101 162.819C387.547 161.833 392.998 160.815 398.388 159.457C403.381 158.199 408.339 156.654 413.237 154.913C420.044 152.494 426.599 149.21 432.962 145.338C436.699 143.064 440.416 140.694 444.278 138.788C452.601 134.678 459.925 128.463 467.287 122.351C474.023 116.757 480.572 110.818 487.213 105.046C487.733 104.594 488.304 104.207 488.888 103.893C489.695 103.458 490.116 103.822 490.102 104.949C490.079 106.824 489.082 108.068 488.156 109.255C484.204 114.325 480.19 119.326 475.641 123.593C469.587 129.272 463.546 134.976 457.41 140.516C450.053 147.157 442.315 153.068 434.004 157.699C429.203 160.375 424.29 162.769 419.343 165.003C412.331 168.169 405.259 171.136 398.18 174.064C393.22 176.115 388.147 177.681 382.95 178.498C378.626 179.177 374.298 179.994 369.952 180.257C362.811 180.688 355.655 180.857 348.506 180.863C344.575 180.867 340.63 180.467 336.714 179.98C329.406 179.07 322.088 178.268 314.947 175.867C306.258 172.946 297.473 170.45 288.813 167.408C281.257 164.753 273.755 161.81 266.342 158.595C259.528 155.64 252.863 152.157 246.138 148.891C245.247 148.458 244.385 147.93 243.42 147.425Z" fill="#6D91CA"/>
<path d="M251.733 115.213C252.063 112.349 252.517 109.485 252.895 106.605C253.394 102.796 253.834 98.9744 254.299 95.1585C254.382 94.4732 254.465 93.7878 254.556 92.9702C257.408 94.4164 260.248 96.0051 263.097 97.5702C265.765 99.0354 268.42 100.537 271.118 101.912C275.067 103.926 278.994 106.043 283.029 107.756C290.047 110.734 297.077 113.724 304.221 116.178C311.818 118.788 319.528 120.921 327.236 122.993C332.298 124.354 337.433 125.318 342.555 126.299C345.164 126.798 347.814 127.016 350.452 127.228C353.908 127.505 357.369 127.728 360.83 127.831C364.166 127.93 367.518 128.077 370.839 127.785C374.823 127.436 378.802 126.808 382.744 126.01C389.55 124.633 396.352 123.186 403.109 121.483C410.708 119.567 418.055 116.523 425.255 112.971C427.743 111.744 430.147 110.26 432.585 108.879C437.498 106.097 442.508 103.543 447.293 100.454C452.357 97.1841 457.362 93.693 462.114 89.7797C470.398 82.9587 478.457 75.7206 486.642 68.7131C487.59 67.9012 488.552 66.7592 489.995 67.373C490.446 69.2197 489.587 70.5933 488.684 71.8273C483.863 78.4152 478.569 84.3847 472.815 89.684C465.792 96.1521 458.794 102.688 451.527 108.716C446.388 112.979 440.96 116.802 435.403 120.168C430 123.44 424.327 126.077 418.667 128.635C411.393 131.921 404.058 135.031 396.662 137.865C392.374 139.508 387.945 140.689 383.519 141.658C379.352 142.57 375.108 142.952 370.894 143.529C362.909 144.622 354.893 144.015 346.89 144.094C344.243 144.12 341.585 143.837 338.947 143.505C334.053 142.889 329.143 142.34 324.291 141.376C319.495 140.423 314.722 139.192 310.011 137.725C301.742 135.149 293.478 132.514 285.307 129.504C277.586 126.659 269.972 123.36 262.344 120.14C258.797 118.642 255.328 116.859 251.733 115.213Z" fill="#6D91CA"/>
<path d="M135.3 254.713C135.598 255.386 135.858 255.964 136.196 256.692C136.999 258.327 137.711 259.822 138.452 261.294C140.245 264.857 142.052 268.41 143.861 272.071C144.194 272.788 144.512 273.408 144.848 274.013C148.241 280.11 151.575 286.259 155.061 292.274C156.586 294.906 158.423 297.261 160.12 299.847C160.338 300.294 160.523 300.677 160.775 300.971C163.71 304.396 166.655 307.806 169.632 311.311C172.425 314.917 175.167 318.452 177.947 321.941C179.019 323.287 180.156 324.558 181.305 325.806C183.017 327.668 184.678 329.629 186.518 331.28C190.369 334.735 194.277 338.1 198.25 341.337C200.789 343.405 203.485 345.177 206.136 347.183C211.311 350.52 216.329 354.147 221.645 356.883C226.876 359.574 232.384 361.465 237.821 363.497C240.242 364.402 242.788 364.79 245.368 365.463C247.414 365.901 249.361 366.363 251.325 366.661C254.966 367.214 258.609 367.968 262.264 368.098C267.39 368.28 272.527 367.982 277.659 367.864C280.886 367.789 284.113 367.684 287.339 367.559C288.905 367.499 290.472 367.416 292.032 367.244C293.171 367.119 294.299 366.831 295.54 366.637C296.171 366.647 296.704 366.708 297.217 366.61C300.171 366.045 303.113 365.365 306.077 364.9C306.975 364.758 307.147 364.362 307.11 363.409C306.996 360.479 306.916 357.547 306.838 354.484C306.69 350.024 306.527 345.695 306.366 341.228C306.374 340.355 306.379 339.619 306.48 338.898C306.833 338.932 307.09 338.951 307.37 339.08C307.519 339.296 307.638 339.474 307.773 339.496C311.912 340.152 316.02 340.881 320.246 340.505C324.431 340.132 328.447 339.11 332.37 337.371C332.667 337.239 332.885 336.835 333.191 336.534C333.243 336.51 333.353 336.496 333.408 336.475C333.536 336.412 333.589 336.346 333.698 336.233C333.876 336.205 333.98 336.2 334.138 336.174C334.266 336.111 334.319 336.044 334.444 335.93C334.968 335.7 335.428 335.555 335.83 335.279C338.083 333.736 340.465 332.396 342.023 329.56C342.463 329.277 342.819 329.007 343.185 328.73C343.356 329.401 343.495 329.947 343.634 330.493C343.624 330.626 343.614 330.759 343.538 331.03C343.418 331.238 343.384 331.321 343.371 331.417C343.368 335.63 343.366 339.843 343.365 344.335C343.446 347.584 343.537 350.553 343.598 353.523C343.629 355.025 343.632 356.529 343.597 358.031C343.57 359.206 343.467 360.379 343.397 361.553C343.397 365.408 343.397 369.263 343.397 373.162C334.404 373.309 325.496 373.455 316.363 373.602C313.233 373.604 310.33 373.604 307.318 373.604C307.318 372.598 307.318 371.77 307.318 371.012C305.197 371.28 303.181 371.569 301.159 371.779C298.804 372.023 296.444 372.192 294.087 372.402C289.655 372.797 285.227 373.399 280.789 373.549C274.636 373.757 268.475 373.628 262.318 373.643C260.418 373.427 258.511 373.277 256.62 372.98C253.054 372.418 249.405 372.199 245.954 371.07C238.904 368.764 231.912 366.14 224.996 363.276C220.607 361.458 216.332 359.148 212.127 356.736C207.588 354.133 203.141 351.265 198.748 348.297C195.905 346.377 193.232 344.069 190.36 341.823C187.844 339.35 185.404 337.058 183.068 334.613C179.833 331.226 176.669 327.734 173.49 324.265C172.345 323.016 171.233 321.719 170.13 320.414C167.019 316.736 163.919 313.043 160.81 309.255C158.212 305.513 155.62 301.871 153.022 298.126C152.107 296.59 151.178 295.175 150.294 293.718C147.145 288.529 144.005 283.332 140.874 278.125C139.648 276.087 138.458 274.017 137.225 271.861C135.955 269.418 134.7 267.083 133.467 264.73C132.369 262.636 131.296 260.522 130.212 258.417C128.789 255.5 127.35 252.594 125.945 249.664C122.983 243.486 119.958 237.353 117.109 231.096C114.235 224.785 111.37 218.452 108.817 211.939C105.673 203.914 102.832 195.705 99.9051 187.551C98.4759 183.57 97.2801 179.452 95.7224 175.553C94.8293 173.317 93.3922 171.423 92.2533 169.33C90.0526 165.286 88.0362 161.105 87.2759 156.238C86.4467 150.93 88.4918 144.273 93.9654 143.855C95.3256 143.75 96.7634 143.759 98.0631 144.19C100.62 145.039 101.377 147.588 101.767 150.615C102.187 153.876 101.608 156.883 100.599 159.715C99.5796 162.575 99.6899 165.376 100.376 168.108C101.441 172.348 102.606 176.585 104.085 180.622C107.316 189.44 110.73 198.156 114.148 206.867C116.813 213.661 119.461 220.475 122.363 227.115C125.448 234.172 128.818 241.038 132.074 247.98C133.119 250.205 134.199 252.405 135.3 254.713Z" fill="#050607"/>
<path d="M231.642 80.9945C227.153 81.0923 222.614 81.1104 218.075 81.1105C197.364 81.1107 176.653 81.1059 155.826 81.0942C154.272 80.7931 152.841 80.439 151.396 80.2204C147.862 79.6856 144.323 79.1996 140.784 78.7238C139.626 78.5682 138.462 78.4355 137.299 78.4107C131.392 78.2848 125.48 77.9866 119.579 78.1689C115.425 78.2971 111.281 79.0569 107.139 79.6052C97.7155 80.8526 88.4716 83.3246 79.3273 86.3068C70.3286 89.2414 61.5459 93.046 52.9463 97.4568C47.6673 100.165 42.4555 103.073 37.1877 105.815C36.5212 106.162 35.6971 106.044 34.946 106.141C35.0703 105.199 35.0502 104.179 35.3459 103.328C36.2467 100.735 38.1058 99.2113 39.8968 97.7268C47.2019 91.6721 54.4201 85.4301 61.9361 79.802C66.6033 76.3071 71.6733 73.5765 76.6992 70.8965C81.4221 68.378 86.2537 66.0911 91.1653 64.2163C98.0917 61.5724 105.108 59.2621 112.143 57.0956C115.111 56.1814 118.216 55.8676 121.276 55.5111C125.752 54.9895 130.242 54.6283 134.73 54.2901C137.347 54.0929 139.978 53.9093 142.594 54.0125C146.571 54.1693 150.557 54.391 154.51 54.9239C162.287 55.9725 170.004 57.5083 177.648 59.6465C187.643 62.4427 197.702 64.9504 207.341 69.3623C215.464 73.08 223.512 77.0488 231.642 80.9945Z" fill="#6D91CA"/>
<path d="M262.37 373.731C268.475 373.628 274.636 373.757 280.789 373.549C285.227 373.399 289.655 372.797 294.087 372.402C296.444 372.192 298.804 372.023 301.159 371.779C303.181 371.569 305.197 371.28 307.318 371.012C307.318 371.77 307.318 372.598 307.318 373.604C310.33 373.604 313.233 373.604 316.251 373.623C320.276 374.732 324.17 375.933 328.104 376.882C332.369 377.911 336.664 378.771 340.961 379.577C343.374 380.029 345.827 380.144 348.246 380.548C355.32 381.73 362.432 381.508 369.532 381.381C372.561 381.327 375.586 380.685 378.608 380.257C381.229 379.885 383.851 379.504 386.458 379.006C389.137 378.495 391.809 377.909 394.463 377.228C398.949 376.077 403.44 374.932 407.891 373.591C414.104 371.721 420.165 369.217 426.027 366.053C430.137 363.835 434.148 361.335 438.224 359.017C442.113 356.805 446.189 355.016 449.896 352.415C455.906 348.198 461.783 343.656 467.531 338.908C474.212 333.391 480.692 327.503 487.264 321.784C487.623 321.473 488.002 321.138 488.413 320.997C488.872 320.839 489.377 320.889 489.862 320.849C489.897 321.548 490.129 322.353 489.927 322.922C489.563 323.945 489.035 324.94 488.408 325.746C486.114 328.694 483.863 331.717 481.386 334.417C477.901 338.219 474.346 341.956 470.611 345.369C463.665 351.714 456.628 357.914 449.506 363.952C446.347 366.631 442.934 368.87 439.56 371.136C432.338 375.986 424.704 379.654 416.947 382.949C410.15 385.836 403.403 388.927 396.535 391.529C392.205 393.17 387.724 394.291 383.255 395.25C379.085 396.144 374.852 396.796 370.627 397.054C363.568 397.486 356.491 397.714 349.424 397.652C344.653 397.609 339.882 396.966 335.117 396.504C331.763 396.179 328.395 395.89 325.076 395.253C321.377 394.542 317.691 393.627 314.061 392.498C305.057 389.696 296.069 386.803 287.112 383.781C282.881 382.354 278.723 380.588 274.552 378.899C270.496 377.256 266.465 375.517 262.37 373.731Z" fill="#6D91CA"/>
<path d="M160.815 309.356C163.919 313.043 167.019 316.736 170.13 320.414C171.233 321.719 172.345 323.016 173.49 324.265C176.669 327.734 179.833 331.226 183.068 334.613C185.404 337.058 187.844 339.35 190.274 341.803C183.855 340.397 177.41 338.817 170.94 337.426C166.108 336.388 161.247 335.546 156.389 334.707C152.473 334.03 148.548 333.417 144.616 332.91C141.427 332.498 138.224 332.147 135.021 332.017C129.73 331.801 124.431 331.62 119.14 331.744C115.789 331.823 112.445 332.471 109.099 332.883C99.676 334.046 90.439 336.47 81.2526 339.23C80.7523 339.38 80.27 339.622 79.6875 339.843C80.5495 335.347 81.4439 330.808 82.4847 326.322C82.9374 324.371 83.6908 322.526 84.4727 320.574C91.756 317.802 98.8527 314.998 106 312.407C110.986 310.599 116.122 309.643 121.295 309.064C126.043 308.533 130.79 307.844 135.549 307.626C139.902 307.426 144.272 307.74 148.634 307.878C149.996 307.921 151.357 308.091 152.714 308.263C155.416 308.606 158.115 308.989 160.815 309.356Z" fill="#6D91CA"/>
<path d="M343.488 361.605C343.467 360.379 343.57 359.206 343.597 358.031C343.632 356.529 343.629 355.025 343.598 353.523C343.537 350.553 343.446 347.584 343.382 344.474C346.747 344.735 350.09 345.26 353.446 345.504C356.993 345.761 360.559 345.953 364.106 345.806C368.759 345.613 373.415 345.22 378.045 344.619C382.729 344.01 387.417 343.268 392.041 342.176C397.948 340.782 403.821 339.123 409.655 337.31C415.348 335.541 420.904 333.18 426.27 330.201C429.593 328.355 432.876 326.399 436.186 324.516C441.022 321.765 446.02 319.38 450.668 316.208C456.295 312.368 461.726 308.049 467.065 303.612C473.966 297.879 480.689 291.818 487.5 285.919C488.202 285.311 488.947 284.459 489.888 285.206C490.381 285.598 490.061 287.648 489.399 288.659C488.893 289.431 488.404 290.235 487.822 290.914C484.095 295.269 480.535 299.885 476.558 303.86C470.494 309.92 464.239 315.709 457.873 321.275C452.819 325.694 447.572 329.809 442.237 333.692C436.611 337.787 430.64 341.091 424.488 343.809C415.391 347.829 406.308 351.921 397.114 355.575C392.467 357.422 387.624 358.631 382.804 359.656C378.317 360.61 373.753 361.178 369.205 361.482C362.795 361.911 356.369 361.994 349.948 362.107C347.827 362.145 345.702 361.817 343.488 361.605Z" fill="#6D91CA"/>
<path d="M225.338 454.709C225.338 438.289 225.338 422.02 225.338 405.655C227.529 405.655 229.619 405.655 231.81 405.655C231.81 431.773 231.81 457.915 231.81 484.251C230.131 484.251 228.443 484.279 226.758 484.218C226.534 484.209 226.26 483.796 226.113 483.492C220.73 472.367 215.366 461.227 209.985 450.099C204.379 438.503 198.759 426.917 193.14 415.33C193.088 415.223 192.967 415.168 192.749 414.974C192.749 438.101 192.749 461.076 192.749 484.154C190.524 484.154 188.405 484.154 186.223 484.154C186.223 457.991 186.223 431.885 186.223 405.687C186.498 405.644 186.766 405.566 187.034 405.565C189.751 405.556 192.469 405.511 195.184 405.604C195.675 405.62 196.363 406.057 196.607 406.562C201.183 416.04 205.709 425.556 210.239 435.068C214.526 444.067 218.807 453.07 223.084 462.076C223.787 463.557 224.453 465.064 225.338 466.506C225.338 462.624 225.338 458.742 225.338 454.709Z" fill="#6D91CA"/>
<path d="M92.5024 119.38C81.1229 119.385 69.7434 119.391 58.2483 119.387C62.464 116.404 66.6894 113.156 71.1498 110.518C79.0398 105.852 87.2611 102.179 95.6677 99.1862C100.143 97.593 104.62 95.9835 109.149 94.6592C112.359 93.7208 115.641 93.0737 118.92 92.6085C123.612 91.9427 128.33 91.5623 133.037 91.0584C133.955 90.9602 134.872 90.8548 135.898 90.7389C136.33 98.9807 133.952 106.131 130.128 112.677C129.684 113.438 129.129 114.101 128.448 114.838C126.761 114.872 125.251 114.823 123.744 114.891C120.004 115.061 116.263 115.248 112.526 115.503C110.769 115.623 109.012 115.851 107.268 116.147C104.741 116.575 102.219 117.06 99.7081 117.612C97.2976 118.141 94.9036 118.786 92.5024 119.38Z" fill="#6D91CA"/>
<path d="M118.757 484.259C117.786 484.259 116.935 484.259 115.993 484.259C115.047 480.244 114.095 476.237 113.159 472.223C112.252 468.333 111.379 464.43 110.435 460.554C110.357 460.233 109.856 459.867 109.551 459.866C102.13 459.828 94.7092 459.824 87.2886 459.88C86.9846 459.883 86.5079 460.466 86.4076 460.886C84.579 468.56 82.7959 476.251 81 483.938C80.9802 484.023 80.9193 484.093 80.8581 484.206C78.4486 484.206 76.0238 484.206 73.4961 484.206C74.4393 480.453 75.371 476.789 76.2816 473.116C78.8579 462.725 81.4156 452.327 84.0005 441.94C85.5399 435.754 87.124 429.585 88.6745 423.402C90.0354 417.976 91.403 412.552 92.7082 407.105C92.9994 405.889 93.4638 405.497 94.4876 405.527C97.5648 405.617 100.645 405.56 103.831 405.56C110.333 431.738 116.827 457.883 123.378 484.259C121.827 484.259 120.353 484.259 118.757 484.259ZM96.001 419.429C93.4379 430.419 90.8749 441.41 88.2847 452.516C94.9991 452.516 101.589 452.516 108.267 452.516C108.111 451.809 107.971 451.154 107.822 450.501C106.435 444.422 105.058 438.338 103.657 432.264C102.146 425.716 100.619 419.173 99.0695 412.638C98.9761 412.244 98.6262 411.944 98.3956 411.6C98.1242 411.951 97.7103 412.246 97.6054 412.662C97.0583 414.828 96.5897 417.024 96.001 419.429Z" fill="#6D91CA"/>
<path d="M174.902 484.259C172.804 484.259 170.82 484.259 168.807 484.259C166.96 476.437 165.102 468.685 163.328 460.903C163.117 459.978 162.807 459.827 162.173 459.828C154.873 459.839 147.573 459.841 140.274 459.826C139.612 459.825 139.349 460.051 139.148 460.945C137.402 468.696 135.576 476.42 133.763 484.198C131.306 484.198 128.882 484.198 126.322 484.198C126.724 482.559 127.105 480.981 127.499 479.408C129.82 470.158 132.149 460.912 134.463 451.659C136.564 443.257 138.65 434.849 140.741 426.443C142.338 420.021 143.96 413.608 145.502 407.166C145.812 405.871 146.298 405.491 147.364 405.526C150.402 405.622 153.443 405.559 156.636 405.559C163.138 431.736 169.642 457.919 176.185 484.259C175.728 484.259 175.372 484.259 174.902 484.259ZM147.254 425.968C145.213 434.782 143.171 443.597 141.104 452.52C147.808 452.52 154.399 452.52 161.069 452.52C160.926 451.855 160.8 451.244 160.662 450.636C159.259 444.459 157.867 438.279 156.448 432.108C154.963 425.652 153.461 419.203 151.933 412.763C151.829 412.323 151.448 411.985 151.196 411.6C150.926 411.953 150.51 412.252 150.41 412.668C149.361 417.018 148.364 421.388 147.254 425.968Z" fill="#6D91CA"/>
<path d="M371.761 405.559C372.388 405.509 372.722 405.591 372.916 406.382C374.469 412.719 376.081 419.032 377.668 425.356C378.875 430.168 380.084 434.98 381.27 439.801C383.666 449.537 386.034 459.283 388.44 469.016C389.677 474.021 390.97 479.004 392.273 484.135C389.768 484.135 387.331 484.135 384.852 484.135C383.031 476.351 381.183 468.54 379.398 460.706C379.162 459.671 378.638 459.841 378.101 459.841C372.059 459.832 366.016 459.835 359.973 459.835C358.757 459.835 357.54 459.851 356.324 459.829C355.728 459.818 355.443 460 355.252 460.847C353.495 468.641 351.669 476.41 349.857 484.209C347.359 484.209 344.934 484.209 342.395 484.209C343.336 480.459 344.263 476.798 345.173 473.13C347.749 462.739 350.308 452.341 352.893 441.953C354.432 435.766 356.016 429.596 357.567 423.414C358.928 417.987 360.303 412.565 361.6 407.115C361.894 405.879 362.353 405.495 363.376 405.528C366.132 405.619 368.891 405.559 371.761 405.559ZM368.791 452.598C371.564 452.598 374.337 452.598 377.228 452.598C375.963 447.159 374.745 441.952 373.542 436.739C371.693 428.724 369.862 420.702 367.99 412.695C367.892 412.274 367.487 411.963 367.224 411.6C366.972 411.979 366.6 412.31 366.488 412.744C365.809 415.375 365.167 418.021 364.554 420.677C362.745 428.503 360.962 436.338 359.156 444.164C358.523 446.906 357.851 449.633 357.141 452.598C361.047 452.598 364.797 452.598 368.791 452.598Z" fill="#6D91CA"/>
<path d="M403.635 473.804C401.061 469.237 399.747 464.154 398.862 458.892C397.871 453.001 397.656 447.006 397.902 441.023C398.227 433.095 399.371 425.349 402.582 418.333C405.936 411 410.815 406.011 417.671 404.72C423.756 403.575 429.618 404.531 434.76 409.166C436.924 411.116 438.68 413.589 439.986 416.508C441.467 419.819 442.614 423.28 443.199 427.027C443.333 427.883 443.202 428.023 442.599 428.198C440.817 428.715 439.053 429.326 437.126 429.95C436.944 429.204 436.737 428.434 436.569 427.651C435.447 422.428 433.537 417.786 429.859 414.639C426.967 412.164 423.687 411.485 420.214 412.058C417.926 412.436 415.752 413.193 413.858 414.868C411 417.395 408.961 420.763 407.654 424.768C406.129 429.44 405.27 434.309 405.167 439.368C405.104 442.467 404.83 445.576 404.964 448.66C405.277 455.883 406.144 462.978 409.444 469.215C412.903 475.753 417.909 478.571 424.075 477.873C430.405 477.157 434.551 472.646 436.791 465.393C437.429 463.328 437.873 461.17 438.421 458.995C440.226 459.474 442.052 459.926 443.858 460.48C444.094 460.552 444.432 461.208 444.377 461.491C443.261 467.232 441.536 472.594 438.331 477.134C434.907 481.983 430.594 484.415 425.508 485.194C421.403 485.823 417.429 485.385 413.549 483.648C409.831 481.984 406.794 479.169 404.445 475.224C404.185 474.787 403.938 474.338 403.635 473.804Z" fill="#6D91CA"/>
<path d="M256.165 420.543C254.113 424.545 253.002 428.866 252.358 433.385C251.634 438.468 251.422 443.612 251.649 448.748C251.97 456.023 252.865 463.171 256.237 469.414C259.716 475.856 264.728 478.591 270.837 477.871C277.112 477.131 281.226 472.627 283.475 465.455C284.121 463.393 284.556 461.229 285.113 459.011C286.922 459.481 288.78 459.936 290.62 460.482C290.836 460.545 291.144 461.166 291.091 461.433C289.961 467.166 288.258 472.544 285.057 477.086C281.611 481.978 277.267 484.436 272.13 485.196C267.221 485.924 262.529 485.21 258.089 482.5C254.27 480.169 251.429 476.506 249.357 471.956C246.888 466.532 245.46 460.666 245.068 454.465C244.792 450.089 244.486 445.683 244.614 441.309C244.85 433.22 246.047 425.334 249.344 418.19C252.7 410.915 257.571 405.997 264.376 404.718C270.462 403.575 276.321 404.544 281.465 409.169C283.6 411.089 285.349 413.527 286.637 416.387C288.142 419.729 289.312 423.242 289.897 427.042C290.034 427.927 289.862 428.027 289.278 428.198C287.497 428.72 285.733 429.329 283.815 429.953C283.633 429.196 283.429 428.421 283.26 427.635C282.134 422.413 280.22 417.771 276.541 414.629C273.649 412.159 270.369 411.478 266.894 412.065C264.483 412.472 262.137 413.186 260.279 415.193C258.809 416.781 257.562 418.687 256.165 420.543Z" fill="#6D91CA"/>
<path d="M309.78 413.701C309.78 434.746 309.78 455.64 309.78 476.666C319.194 476.666 328.504 476.666 337.911 476.666C337.911 479.221 337.911 481.646 337.911 484.166C326.158 484.166 314.415 484.166 302.576 484.166C302.576 458.036 302.576 431.891 302.576 405.653C304.917 405.653 307.251 405.653 309.78 405.653C309.78 408.271 309.78 410.91 309.78 413.701Z" fill="#6D91CA"/>
<path d="M343.721 330.434C343.495 329.947 343.356 329.401 343.185 328.73C342.818 329.008 342.463 329.277 342.009 329.432C341.989 328.09 342.103 326.864 342.138 325.634C342.242 321.896 340.264 318.495 337.337 317.235C335.9 316.617 334.396 316.124 332.89 315.886C330.398 315.492 327.862 314.997 325.376 315.186C321.867 315.454 318.389 316.312 314.896 316.907C310.423 317.668 306.29 319.673 302.403 322.413C300.97 323.423 299.696 324.848 298.493 326.27C297.144 327.866 297.109 329.591 298.39 331.236C299.617 332.81 300.962 334.266 302.36 335.605C303.627 336.817 305.037 337.799 306.384 338.883C306.379 339.619 306.374 340.355 306.285 341.182C305.772 341.042 305.326 340.85 304.916 340.575C301.26 338.122 297.885 335.256 295.646 330.64C295.254 328.617 295.607 326.96 296.497 325.331C298.045 322.499 300.343 320.829 302.676 319.397C305.427 317.709 308.379 316.524 311.243 315.12C313.345 314.665 315.443 314.175 317.551 313.765C319.157 313.453 320.772 313.101 322.391 313.022C324.941 312.899 327.51 312.797 330.049 313.038C333.31 313.347 336.621 313.62 339.569 315.737C341.572 317.174 342.946 319.241 343.763 322.009C343.991 323.301 344.268 324.547 344.252 325.787C344.231 327.319 343.967 328.846 343.721 330.434Z" fill="black"/>
<path d="M36.0569 355.633C38.606 355.528 41.2235 355.522 43.9567 355.525C43.5392 355.626 43.0062 355.792 42.4729 355.794C40.3571 355.801 38.2412 355.757 36.0569 355.633Z" fill="#6D91CA"/>
<path d="M343.433 331.391C343.384 331.32 343.418 331.237 343.519 331.127C343.543 331.181 343.52 331.273 343.433 331.391Z" fill="black"/>
<path d="M137.251 271.961C138.458 274.017 139.648 276.087 140.874 278.125C144.005 283.332 147.145 288.529 150.294 293.718C151.178 295.175 152.107 296.59 152.915 298.121C150.349 297.911 147.886 297.556 145.417 297.308C141.064 296.872 136.707 296.499 132.352 296.108C131.909 296.068 131.462 296.097 131.017 296.084C128.036 295.995 125.048 295.709 122.075 295.861C117.956 296.071 113.843 296.54 109.738 297.032C106.962 297.365 104.199 297.884 101.439 298.399C98.9249 298.869 96.4237 299.447 93.9167 299.978C99.3726 290.621 105.831 282.416 112.954 274.731C114.438 274.484 115.741 274.261 117.046 274.065C121.044 273.465 125.036 272.768 129.045 272.321C131.767 272.017 134.515 272.068 137.251 271.961Z" fill="#6D91CA"/>
<path d="M92.6143 119.391C94.9038 118.786 97.2978 118.141 99.7083 117.612C102.219 117.06 104.742 116.575 107.268 116.147C109.012 115.851 110.769 115.623 112.526 115.503C116.264 115.248 120.004 115.061 123.745 114.891C125.251 114.823 126.761 114.872 128.372 114.877C127.316 116.367 126.176 117.871 124.981 119.302C124.805 119.512 124.362 119.403 124.042 119.403C113.604 119.406 103.165 119.404 92.6143 119.391Z" fill="white"/>
<path d="M160.623 113.56C160.336 113.46 159.966 113.333 159.751 113.034C159.257 112.349 158.834 112.43 158.296 113.055C158.342 112.392 158.468 111.709 158.655 110.702C159.422 111.783 160.016 112.619 160.623 113.56Z" fill="#FDFEFE"/>
<path d="M163.053 116.873C162.329 116.041 161.593 115.106 160.86 114.057C161.589 114.886 162.315 115.827 163.053 116.873Z" fill="#FDFEFE"/>
<path d="M186.64 145.834C186.153 146.023 185.632 146.118 185.013 146.221C185.161 145.653 185.407 145.077 185.737 144.304C186.088 144.883 186.347 145.311 186.64 145.834Z" fill="#FDFEFE"/>
<path d="M162.403 119.074C162.557 118.436 162.802 117.817 163.052 117.083C163.395 117.347 163.733 117.727 164.211 118.264C163.522 118.597 163.008 118.845 162.403 119.074Z" fill="#FDFEFE"/>
<path d="M189.176 151.34C189.081 150.808 189.083 150.298 189.09 149.66C189.519 150.022 189.944 150.512 190.581 151.245C189.937 151.302 189.605 151.332 189.176 151.34Z" fill="#FDFEFE"/>
<path d="M157.094 118.247C157.343 118.74 157.512 119.293 157.689 119.945C157.4 120.143 157.103 120.241 156.668 120.383C156.812 119.519 156.913 118.913 157.094 118.247Z" fill="#FDFEFE"/>
<path d="M163.053 122.296C162.654 121.572 162.243 120.739 161.833 119.79C162.238 120.511 162.64 121.349 163.053 122.296Z" fill="#FDFEFE"/>
<path d="M169.607 132.871C168.764 132.97 168.288 132.411 168.16 131.247C168.633 131.681 169.103 132.23 169.607 132.871Z" fill="#FDFEFE"/>
<path d="M179.991 118.811C179.713 119.376 179.36 119.982 178.92 120.594C179.193 120.018 179.554 119.435 179.991 118.811Z" fill="#FDFEFE"/>
<path d="M185.344 110.971C185.067 111.536 184.714 112.142 184.273 112.754C184.547 112.178 184.908 111.595 185.344 110.971Z" fill="#FDFEFE"/>
<path d="M186.804 108.861C186.527 109.425 186.174 110.031 185.733 110.644C186.007 110.067 186.368 109.485 186.804 108.861Z" fill="#FDFEFE"/>
<path d="M177.314 122.731C177.036 123.296 176.684 123.902 176.243 124.514C176.516 123.938 176.878 123.355 177.314 122.731Z" fill="#FDFEFE"/>
<path d="M173.177 128.762C172.899 129.326 172.547 129.933 172.106 130.545C172.379 129.968 172.741 129.386 173.177 128.762Z" fill="#FDFEFE"/>
<path d="M182.667 114.891C182.39 115.456 182.037 116.062 181.596 116.674C181.87 116.098 182.231 115.515 182.667 114.891Z" fill="#FDFEFE"/>
<path d="M175.854 124.842C175.576 125.406 175.223 126.013 174.783 126.625C175.056 126.048 175.417 125.466 175.854 124.842Z" fill="#FDFEFE"/>
<path d="M181.207 117.002C181.012 117.466 180.741 117.971 180.381 118.483C180.572 118.007 180.852 117.525 181.207 117.002Z" fill="#FDFEFE"/>
<path d="M178.531 120.922C178.335 121.386 178.064 121.891 177.704 122.403C177.895 121.927 178.175 121.445 178.531 120.922Z" fill="#FDFEFE"/>
<path d="M188.021 107.051C187.825 107.515 187.554 108.02 187.195 108.532C187.386 108.057 187.666 107.575 188.021 107.051Z" fill="#FDFEFE"/>
<path d="M174.394 126.952C174.198 127.416 173.927 127.922 173.567 128.433C173.759 127.958 174.039 127.476 174.394 126.952Z" fill="#FDFEFE"/>
<path d="M167.923 130.75C167.605 130.418 167.273 129.984 166.944 129.437C167.267 129.765 167.589 130.206 167.923 130.75Z" fill="#FDFEFE"/>
<path d="M171.717 130.872C171.521 131.336 171.25 131.841 170.89 132.353C171.082 131.878 171.362 131.396 171.717 130.872Z" fill="#FDFEFE"/>
<path d="M187.878 147.636C187.559 147.304 187.228 146.87 186.898 146.322C187.222 146.651 187.543 147.092 187.878 147.636Z" fill="#FDFEFE"/>
<path d="M189.092 149.441C188.773 149.11 188.443 148.677 188.115 148.131C188.438 148.458 188.759 148.898 189.092 149.441Z" fill="#FDFEFE"/>
<path d="M183.884 113.082C183.689 113.546 183.418 114.051 183.058 114.563C183.249 114.087 183.529 113.605 183.884 113.082Z" fill="#FDFEFE"/>
<path d="M157.831 114.922C157.82 115.364 157.733 115.858 157.565 116.372C157.575 115.919 157.664 115.446 157.831 114.922Z" fill="#FDFEFE"/>
<path d="M164.27 124.713C164.033 124.387 163.785 123.957 163.54 123.413C163.782 123.736 164.02 124.173 164.27 124.713Z" fill="#FDFEFE"/>
<path d="M165.974 127.732C165.737 127.502 165.488 127.172 165.243 126.729C165.485 126.955 165.724 127.294 165.974 127.732Z" fill="#FDFEFE"/>
<path d="M166.707 128.943C166.469 128.712 166.22 128.38 165.973 127.936C166.215 128.162 166.455 128.503 166.707 128.943Z" fill="#FDFEFE"/>
<path d="M165.249 126.529C165.091 126.395 164.922 126.164 164.757 125.822C164.919 125.951 165.079 126.191 165.249 126.529Z" fill="#FDFEFE"/>
<path d="M164.762 125.624C164.604 125.491 164.436 125.259 164.27 124.917C164.432 125.047 164.592 125.286 164.762 125.624Z" fill="#FDFEFE"/>
<path d="M163.546 123.212C163.388 123.078 163.219 122.847 163.053 122.505C163.216 122.634 163.375 122.874 163.546 123.212Z" fill="#FDFEFE"/>
<path d="M157.35 117.02C157.407 117.178 157.395 117.375 157.312 117.584C157.255 117.418 157.268 117.238 157.35 117.02Z" fill="#FDFEFE"/>
<path d="M158.08 113.703C158.137 113.861 158.125 114.058 158.042 114.268C157.985 114.101 157.998 113.921 158.08 113.703Z" fill="#FDFEFE"/>
<path d="M43.8833 161.64C43.9563 161.481 44.101 161.307 44.3236 161.197C44.2527 161.383 44.1039 161.504 43.8833 161.64Z" fill="#FFFEFB"/>
<path d="M44.5445 161.101C44.5317 160.918 44.5785 160.686 44.7177 160.441C44.7415 160.635 44.6728 160.844 44.5445 161.101Z" fill="#FFFEFB"/>
<path d="M143.861 272.071C148.136 272.371 152.421 272.725 156.698 273.193C164.345 274.028 171.848 275.92 179.334 277.966C189.382 280.713 199.422 283.498 209.086 287.968C216.076 291.201 223.046 294.504 229.971 297.945C236.863 301.369 243.704 304.955 250.536 308.563C255.426 311.146 260.272 313.857 265.122 316.554C271.864 320.302 278.627 323.985 285.662 326.832C288.92 328.15 292.181 329.46 295.535 330.77C297.885 335.256 301.26 338.122 304.916 340.575C305.326 340.85 305.772 341.042 306.282 341.32C306.527 345.695 306.69 350.024 306.742 354.478C302.747 353.306 298.868 351.982 294.977 350.718C284.434 347.295 274.085 343.12 263.797 338.673C254.695 334.738 245.926 329.834 237.086 325.118C231.369 322.069 225.558 319.272 219.713 316.616C211.396 312.837 202.888 309.786 194.255 307.327C188.74 305.757 183.183 304.409 177.629 303.063C174.303 302.257 170.952 301.604 167.601 300.964C165.115 300.489 162.613 300.145 160.118 299.742C158.423 297.261 156.586 294.906 155.061 292.274C151.576 286.259 148.241 280.11 144.848 274.013C144.512 273.408 144.194 272.788 143.861 272.071Z" fill="#6D91CA"/>
<path d="M206.111 347.082C203.485 345.177 200.789 343.405 198.25 341.337C194.277 338.1 190.369 334.735 186.518 331.28C184.678 329.629 183.017 327.668 181.305 325.806C180.156 324.558 179.019 323.287 177.947 321.941C175.166 318.452 172.425 314.917 169.732 311.296C173.575 312.187 177.37 313.097 181.128 314.198C187.602 316.093 194.137 317.767 200.492 320.163C207.393 322.765 214.176 325.901 220.904 329.142C228.865 332.978 236.736 337.107 244.603 341.234C252.549 345.403 260.414 349.809 268.368 353.954C274.364 357.077 280.423 360.02 286.495 362.91C289.425 364.304 292.45 365.39 295.432 366.616C294.299 366.831 293.171 367.119 292.032 367.244C290.472 367.416 288.905 367.499 287.339 367.559C284.113 367.684 280.886 367.789 277.659 367.864C272.527 367.982 267.39 368.28 262.264 368.098C258.609 367.968 254.966 367.214 251.325 366.661C249.361 366.363 247.414 365.901 245.327 365.372C241.729 363.338 238.273 361.417 234.797 359.557C226.309 355.015 217.614 351.174 208.777 347.818C207.909 347.488 207 347.324 206.111 347.082Z" fill="#6D91CA"/>
<path d="M295.54 366.637C292.45 365.39 289.425 364.304 286.495 362.91C280.423 360.02 274.364 357.077 268.368 353.953C260.414 349.809 252.549 345.403 244.603 341.234C236.736 337.107 228.865 332.977 220.904 329.142C214.176 325.901 207.393 322.765 200.492 320.163C194.137 317.767 187.602 316.093 181.128 314.198C177.37 313.097 173.575 312.187 169.697 311.206C166.655 307.806 163.71 304.396 160.775 300.971C160.523 300.677 160.338 300.294 160.12 299.847C162.613 300.145 165.115 300.489 167.601 300.964C170.952 301.604 174.303 302.257 177.629 303.063C183.183 304.408 188.74 305.756 194.255 307.327C202.888 309.786 211.396 312.837 219.713 316.616C225.558 319.272 231.369 322.069 237.086 325.118C245.926 329.834 254.695 334.738 263.797 338.673C274.085 343.12 284.434 347.295 294.977 350.718C298.868 351.982 302.747 353.306 306.727 354.609C306.916 357.547 306.997 360.479 307.11 363.409C307.147 364.362 306.975 364.758 306.077 364.899C303.113 365.365 300.171 366.045 297.217 366.61C296.704 366.708 296.171 366.646 295.54 366.637Z" fill="white"/>
<path d="M306.48 338.898C305.037 337.799 303.627 336.817 302.36 335.605C300.961 334.266 299.616 332.81 298.39 331.236C297.109 329.591 297.144 327.866 298.493 326.27C299.696 324.848 300.97 323.423 302.403 322.413C306.29 319.673 310.423 317.668 314.896 316.906C318.389 316.312 321.867 315.454 325.376 315.186C327.862 314.997 330.398 315.492 332.89 315.886C334.396 316.124 335.899 316.617 337.337 317.235C340.264 318.495 342.242 321.896 342.138 325.634C342.103 326.863 341.989 328.09 341.925 329.445C340.465 332.396 338.082 333.736 335.83 335.279C335.428 335.555 334.968 335.7 334.379 335.92C334.177 336.022 334.13 336.108 334.083 336.195C333.979 336.2 333.876 336.205 333.633 336.223C333.446 336.323 333.4 336.41 333.353 336.496C333.353 336.496 333.243 336.51 333.096 336.514C332.73 336.615 332.512 336.721 332.29 336.808C327.015 338.881 321.535 339.174 316.08 339.464C313.18 339.618 310.259 339.154 307.347 338.969C307.09 338.951 306.833 338.932 306.48 338.898Z" fill="#EEE41E"/>
<path d="M206.136 347.183C207 347.324 207.909 347.488 208.777 347.818C217.614 351.174 226.309 355.015 234.797 359.557C238.273 361.417 241.729 363.338 245.235 365.322C242.788 364.79 240.242 364.402 237.821 363.497C232.384 361.465 226.876 359.574 221.645 356.883C216.329 354.147 211.311 350.52 206.136 347.183Z" fill="white"/>
<path d="M307.37 339.08C310.259 339.154 313.18 339.618 316.081 339.464C321.535 339.174 327.015 338.881 332.29 336.808C332.512 336.721 332.73 336.615 333.045 336.537C332.885 336.835 332.667 337.239 332.37 337.371C328.447 339.11 324.431 340.132 320.245 340.505C316.02 340.881 311.912 340.152 307.773 339.496C307.638 339.474 307.519 339.296 307.37 339.08Z" fill="black"/>
<path d="M333.408 336.474C333.4 336.409 333.447 336.323 333.561 336.246C333.592 336.345 333.538 336.412 333.408 336.474Z" fill="black"/>
<path d="M334.138 336.173C334.13 336.107 334.177 336.021 334.29 335.944C334.322 336.044 334.268 336.11 334.138 336.173Z" fill="black"/>
<path d="M368.669 452.598C364.798 452.598 361.048 452.598 357.141 452.598C357.851 449.633 358.523 446.906 359.156 444.164C360.962 436.338 362.745 428.503 364.554 420.677C365.167 418.021 365.809 415.375 366.488 412.744C366.6 412.31 366.972 411.979 367.224 411.6C367.487 411.963 367.892 412.274 367.99 412.695C369.862 420.702 371.693 428.724 373.542 436.739C374.745 441.952 375.964 447.159 377.228 452.598C374.337 452.598 371.564 452.598 368.669 452.598Z" fill="white"/>
</g>
<defs>
<clipPath id="clip0_37_5">
<rect width="512" height="512" fill="white"/>
</clipPath>
</defs>
</svg>
